<?xml version="1.0" encoding="UTF-8" standalone="no"?>
<!DOCTYPE svg PUBLIC "-//W3C//DTD SVG 1.1//EN" "http://www.w3.org/Graphics/SVG/1.1/DTD/svg11.dtd">
<svg width="100%" height="100%" viewBox="0 0 876 876" version="1.1" xmlns="http://www.w3.org/2000/svg" xmlns:xlink="http://www.w3.org/1999/xlink" xml:space="preserve" xmlns:serif="http://www.serif.com/" style="fill-rule:evenodd;clip-rule:evenodd;stroke-linejoin:round;stroke-miterlimit:2;">
    <path d="M749.653,744.306C670.238,825.094 559.734,875.225 437.613,875.225C196.088,875.225 0,679.138 0,437.613C0,264.183 101.105,114.182 247.537,43.385C235.753,88.618 229.48,136.066 229.48,184.967C229.48,480.817 459.074,723.466 749.653,744.306Z" style="fill:rgb(235,235,235);"/>
    <clipPath id="_clip1">
        <path d="M749.653,744.306C670.238,825.094 559.734,875.225 437.613,875.225C196.088,875.225 0,679.138 0,437.613C0,264.183 101.105,114.182 247.537,43.385C235.753,88.618 229.48,136.066 229.48,184.967C229.48,480.817 459.074,723.466 749.653,744.306Z"/>
    </clipPath>
    <g clip-path="url(#_clip1)">
        <g transform="matrix(0.897415,-0.441187,0.441187,0.897415,-243.677,239.017)">
            <circle cx="523.782" cy="478.799" r="437.613" style="fill:rgb(170,170,170);"/>
            <clipPath id="_clip2">
                <circle cx="523.782" cy="478.799" r="437.613"/>
            </clipPath>
            <g clip-path="url(#_clip2)">
                <g id="Layer1" transform="matrix(1,0,0,1,29.4578,-27.2578)">
                    <path d="M255.977,149.734C174.968,190.792 120.254,199.247 132.48,317.541C136.575,357.166 149.964,422.469 204.092,448.755C258.221,475.042 226.445,546.709 273.471,604.417C302.834,640.45 343.147,634.153 380.659,621.593C418.172,609.033 430.104,518.181 434.519,502.341C438.934,486.5 447.024,455.42 486.88,458.086C526.736,460.752 585.217,401.664 606.844,428.343C628.471,455.023 592.615,534.555 624.869,594.7C657.124,654.846 754.49,745.198 818.333,666.086C882.177,586.973 855.064,511.944 840.937,484.921C826.81,457.897 771.767,409.381 767.137,368.384C762.506,327.388 774.79,266.483 710.985,248.204C647.18,229.924 685.038,188.133 640.497,141.499C546.045,42.611 501.32,42.1 385.013,51.131C352.846,53.628 301.147,126.84 255.977,149.734Z" style="fill:rgb(133,133,133);"/>
                    <path d="M247.263,678.095C265.96,618.528 326.799,603.444 349.218,602.121C392.088,599.591 401.424,617.842 450.656,622.375C499.003,626.827 560.95,608.585 542.354,672.797C523.759,737.008 495.644,754.644 468.343,805.664C441.042,856.684 342.198,853.009 327.894,810.786C313.591,768.563 228.566,737.662 247.263,678.095Z" style="fill:rgb(155,155,155);"/>
                    <g transform="matrix(0.215633,0,0,0.375085,260.591,135.636)">
                        <ellipse cx="346.428" cy="228.754" rx="14.197" ry="11.708" style="fill:rgb(238,238,238);"/>
                    </g>
                    <path d="M581.191,412.804C602.447,408.982 618.2,423.02 627.938,442.498C644.825,476.276 605.651,487.424 578.711,490.793C567.079,492.247 535.115,475.986 541.899,454.399C548.33,433.937 559.187,416.76 581.191,412.804Z" style="fill:rgb(189,189,189);"/>
                    <g transform="matrix(1.55528,0,0,1.14695,-315.958,-89.9301)">
                        <path d="M518.811,418.042C558.73,406.261 608.387,398.173 632.628,479.71C642.83,514.026 577.401,592.371 545.786,598.993C536.89,600.857 504.957,601.355 493.784,586.191C483.295,571.956 459.962,539.289 461.25,513.829C463.835,462.72 476.105,430.645 518.811,418.042Z" style="fill:rgb(144,144,144);"/>
                    </g>
                    <path d="M187.276,166.169C217.112,137.851 301.705,68.784 362.378,59.263C410.76,51.67 513.732,90.109 571.396,166.243C605.639,211.454 630.368,240.897 619.741,275.152C588.836,374.772 472.641,369.742 433.461,392.088C385.611,419.38 398.247,506.617 333.938,514.56C286.199,520.457 186.228,426.7 162.576,319.934C154.04,281.403 144.514,206.757 187.276,166.169Z" style="fill:rgb(104,104,104);"/>
                    <path d="M581.338,718.743C590.833,751.757 633.114,787.412 648.476,766.185C661.693,747.923 684.208,701.424 678.238,673.029C672.269,644.634 661.418,613.389 620.69,639.05C603.739,649.73 569.071,676.085 581.338,718.743Z" style="fill:rgb(159,159,159);"/>
                    <g transform="matrix(0.77153,0,0,0.899979,138.087,25.2903)">
                        <path d="M702.073,239.947C740.912,247.837 790.975,283.723 790.975,323.175C790.975,362.628 798.711,416.088 743.764,416.088C688.817,416.088 651.369,392.395 626.009,346.965C606.143,311.378 648.607,229.086 702.073,239.947Z" style="fill:rgb(125,125,125);"/>
                    </g>
                    <g transform="matrix(0.98018,-0.198111,0.198111,0.98018,-62.2075,179.529)">
                        <path d="M866.118,329.552C893.039,329.552 914.895,361.412 914.895,400.655C914.895,439.898 893.039,471.759 866.118,471.759C839.198,471.759 831.753,442.156 831.753,402.913C831.753,363.669 839.198,329.552 866.118,329.552Z" style="fill:rgb(161,161,161);"/>
                    </g>
                    <path d="M239.057,513.407C268.593,513.407 278.4,523.927 312.349,571.656C350.396,625.149 306.571,645.561 277.072,647.041C226.591,649.573 205.317,603.34 205.317,571.656C205.317,539.973 209.52,513.407 239.057,513.407Z" style="fill:rgb(159,159,159);"/>
                    <path d="M134.101,469.392C151.332,469.392 164.205,517.355 164.205,537.941C164.205,558.527 151.868,568.354 120.589,558.87C104.099,553.87 100.712,527.875 100.712,507.289C100.712,486.703 116.87,469.392 134.101,469.392Z" style="fill:rgb(145,145,145);"/>
                    <path d="M627.073,69.159C688.003,88.451 767.544,139.712 728.442,143.531C710.684,145.266 655.488,146.272 590.079,132.891C477.34,109.828 430.133,90.064 421.355,71.216C412.577,52.368 566.143,49.867 627.073,69.159Z" style="fill:rgb(215,215,215);"/>
                    <g transform="matrix(1,0,0,1,-53.5129,19.4592)">
                        <path d="M423.685,652.849C441.379,652.849 459.321,671.826 459.321,691.727C459.321,711.627 439.777,733.979 422.083,733.979C404.389,733.979 377.73,712.152 377.73,692.251C377.73,672.35 405.991,652.849 423.685,652.849Z" style="fill:rgb(138,138,138);"/>
                    </g>
                    <g transform="matrix(0.454083,0,0,0.658961,193.178,123.285)">
                        <path d="M381.56,268.501C432.369,260.095 462.441,273.707 471.018,321.021C477.918,359.08 467.748,385.737 394.75,386.33C332.987,386.831 289.424,369.262 293.333,328.762C295.63,304.963 331.517,276.78 381.56,268.501Z" style="fill:rgb(123,123,123);"/>
                    </g>
                    <path d="M200.73,233.645C206.814,280.531 236.615,300.095 279.093,280.117C321.571,260.139 335.432,212.331 378.952,200.922C434.721,186.302 428.799,142.643 393.157,127.55C363.196,114.863 339.394,133.159 300.191,148.662C245.361,170.345 194.634,186.66 200.73,233.645Z" style="fill:rgb(86,86,86);"/>
                </g>
            </g>
        </g>
    </g>
    <g transform="matrix(1.51557,0,0,1.51557,-351.64,32.6691)">
        <path d="M672.788,292.789L668.881,292.789L525.913,140.576L526.043,227.946C526.043,237.668 526.607,245.48 527.736,251.383C528.864,257.286 530.687,262.364 533.204,266.617C539.107,276.166 548.699,282.156 561.98,284.586L561.98,288.623L493.881,288.623L493.881,284.586C505.6,280.246 513.413,272.043 517.319,259.977C518.708,255.984 519.663,251.578 520.183,246.761C520.704,241.943 520.965,235.845 520.965,228.466L520.965,135.237C514.194,128.293 508.986,123.519 505.34,120.914C501.694,118.31 497.527,116.314 492.84,114.925L492.84,110.888L543.361,110.888C545.444,114.534 547.701,117.833 550.131,120.784C550.652,121.218 551.585,122.26 552.931,123.909C554.276,125.558 555.166,126.644 555.6,127.164C557.076,128.814 557.814,129.638 557.814,129.638L667.84,247.216L667.84,157.633C667.84,148.519 666.69,141.032 664.389,135.172C662.089,129.313 658.486,124.777 653.582,121.565C648.677,118.354 642.189,116.14 634.116,114.925L634.116,110.888L696.225,110.888L696.225,114.925C686.937,117.442 680.709,121.609 677.54,127.425C674.372,133.241 672.788,143.31 672.788,157.633L672.788,292.789ZM667.84,284.586L667.84,264.144L545.704,133.675C540.149,127.859 535.678,121.913 532.293,115.836L505.73,115.836C512.067,119.656 518.534,125.124 525.131,132.242L667.84,284.586ZM651.954,115.836C656.121,117.92 659.289,120.046 661.46,122.216C663.63,124.387 665.756,127.555 667.84,131.722C669.402,127.555 670.704,124.56 671.746,122.737C672.788,120.914 674.524,118.614 676.954,115.836L651.954,115.836ZM534.637,281.982C531.164,278.163 528.539,274.842 526.759,272.021C524.979,269.2 523.308,265.706 521.746,261.539C520.097,265.966 518.317,269.634 516.407,272.542C514.498,275.45 511.72,278.597 508.074,281.982L534.637,281.982Z" style="fill-rule:nonzero;"/>
    </g>
    <circle cx="738.697" cy="363.646" r="3.676" style="fill:white;"/>
    <g transform="matrix(1,0,0,1,27.6717,69.5323)">
        <path d="M738.697,356.257L740.183,356.407L741.575,356.839L742.832,357.522L743.922,358.421L744.822,359.512L745.504,360.768L745.937,362.16L746.087,363.646L745.937,365.132L745.504,366.524L744.822,367.78L743.922,368.871L742.832,369.771L741.575,370.453L740.183,370.886L738.697,371.036L737.212,370.886L735.82,370.453L734.563,369.771L733.473,368.871L732.573,367.78L731.891,366.524L731.458,365.132L731.308,363.646L731.458,362.16L731.891,360.768L732.573,359.512L733.473,358.421L734.563,357.522L735.82,356.839L737.212,356.407L738.697,356.257Z"/>
    </g>
    <g transform="matrix(1,0,0,1,-33.1201,-251.836)">
        <path d="M738.697,356.257L740.183,356.407L741.575,356.839L742.832,357.522L743.922,358.421L744.822,359.512L745.504,360.768L745.937,362.16L746.087,363.646L745.937,365.132L745.504,366.524L744.822,367.78L743.922,368.871L742.832,369.771L741.575,370.453L740.183,370.886L738.697,371.036L737.212,370.886L735.82,370.453L734.563,369.771L733.473,368.871L732.573,367.78L731.891,366.524L731.458,365.132L731.308,363.646L731.458,362.16L731.891,360.768L732.573,359.512L733.473,358.421L734.563,357.522L735.82,356.839L737.212,356.407L738.697,356.257Z"/>
    </g>
    <g transform="matrix(1,0,0,1,-383.876,-267.948)">
        <path d="M738.697,356.257L740.183,356.407L741.575,356.839L742.832,357.522L743.922,358.421L744.822,359.512L745.504,360.768L745.937,362.16L746.087,363.646L745.937,365.132L745.504,366.524L744.822,367.78L743.922,368.871L742.832,369.771L741.575,370.453L740.183,370.886L738.697,371.036L737.212,370.886L735.82,370.453L734.563,369.771L733.473,368.871L732.573,367.78L731.891,366.524L731.458,365.132L731.308,363.646L731.458,362.16L731.891,360.768L732.573,359.512L733.473,358.421L734.563,357.522L735.82,356.839L737.212,356.407L738.697,356.257Z"/>
    </g>
    <g transform="matrix(1,0,0,1,-188.127,171.995)">
        <path d="M738.697,356.257L740.183,356.407L741.575,356.839L742.832,357.522L743.922,358.421L744.822,359.512L745.504,360.768L745.937,362.16L746.087,363.646L745.937,365.132L745.504,366.524L744.822,367.78L743.922,368.871L742.832,369.771L741.575,370.453L740.183,370.886L738.697,371.036L737.212,370.886L735.82,370.453L734.563,369.771L733.473,368.871L732.573,367.78L731.891,366.524L731.458,365.132L731.308,363.646L731.458,362.16L731.891,360.768L732.573,359.512L733.473,358.421L734.563,357.522L735.82,356.839L737.212,356.407L738.697,356.257Z"/>
    </g>
    <g transform="matrix(1,0,0,1,-9.03127,-55.426)">
        <path d="M738.697,356.257L740.183,356.407L741.575,356.839L742.832,357.522L743.922,358.421L744.822,359.512L745.504,360.768L745.937,362.16L746.087,363.646L745.937,365.132L745.504,366.524L744.822,367.78L743.922,368.871L742.832,369.771L741.575,370.453L740.183,370.886L738.697,371.036L737.212,370.886L735.82,370.453L734.563,369.771L733.473,368.871L732.573,367.78L731.891,366.524L731.458,365.132L731.308,363.646L731.458,362.16L731.891,360.768L732.573,359.512L733.473,358.421L734.563,357.522L735.82,356.839L737.212,356.407L738.697,356.257Z"/>
    </g>
    <g transform="matrix(0.409115,0,0,0.409115,361.884,395.589)">
        <path d="M748.008,515.028L758.487,532.899L776.358,543.377C783.449,547.535 787.805,555.139 787.805,563.359C787.805,571.579 783.449,579.183 776.358,583.341L758.487,593.82L748.008,611.691C743.851,618.781 736.247,623.138 728.027,623.138C719.807,623.138 712.203,618.781 708.045,611.691L697.566,593.82L679.695,583.341C672.604,579.183 668.248,571.579 668.248,563.359C668.248,555.139 672.604,547.535 679.695,543.377L697.566,532.899L708.045,515.028C712.203,507.937 719.807,503.581 728.027,503.581C736.247,503.581 743.851,507.937 748.008,515.028Z"/>
    </g>
    <g transform="matrix(0.409115,0,0,0.409115,41.2384,85.7926)">
        <path d="M748.008,515.028L758.487,532.899L776.358,543.377C783.449,547.535 787.805,555.139 787.805,563.359C787.805,571.579 783.449,579.183 776.358,583.341L758.487,593.82L748.008,611.691C743.851,618.781 736.247,623.138 728.027,623.138C719.807,623.138 712.203,618.781 708.045,611.691L697.566,593.82L679.695,583.341C672.604,579.183 668.248,571.579 668.248,563.359C668.248,555.139 672.604,547.535 679.695,543.377L697.566,532.899L708.045,515.028C712.203,507.937 719.807,503.581 728.027,503.581C736.247,503.581 743.851,507.937 748.008,515.028Z"/>
    </g>
    <g transform="matrix(0.409115,0,0,0.409115,229.941,-105.488)">
        <path d="M748.008,515.028L758.487,532.899L776.358,543.377C783.449,547.535 787.805,555.139 787.805,563.359C787.805,571.579 783.449,579.183 776.358,583.341L758.487,593.82L748.008,611.691C743.851,618.781 736.247,623.138 728.027,623.138C719.807,623.138 712.203,618.781 708.045,611.691L697.566,593.82L679.695,583.341C672.604,579.183 668.248,571.579 668.248,563.359C668.248,555.139 672.604,547.535 679.695,543.377L697.566,532.899L708.045,515.028C712.203,507.937 719.807,503.581 728.027,503.581C736.247,503.581 743.851,507.937 748.008,515.028Z"/>
    </g>
</svg>
